<svg
  xmlns="http://www.w3.org/2000/svg"
  viewBox="0 0  800 450"
>

<style>

#camera {
  animation-name: camera-motion;
  animation-duration: 5s;
  animation-iteration-count: infinite;
  animation-fill-mode: forwards;
  animation-timing-function: ease-out;
}
@keyframes camera-motion {
  0% {
    transform: translate(0, 0);
  }
  20% {
    transform: translate(0, 0);
  }
  30% {
    transform: scale(0.2, 0.2) translate(-100px, 1500px);
  }
  100% {
    transform: scale(0.2, 0.2) translate(-100px, 1500px);
  }
}

#infrastructure {
  animation-name: infra-visibility;
  animation-duration: 5s;
  animation-iteration-count: infinite;
  animation-fill-mode: forwards;
  animation-timing-function: ease-out;
}

@keyframes infra-visibility {
  0% {
    opacity: 0;
  }
  31% {
    opacity: 0;
  }
  32% {
    opacity: 1;
  }
  100% {
    opacity: 1;
  }
}

#goofbox-sign {
  font: italic 48px serif;
  fill: black; 
  letter-spacing: 2px;
}

</style>

<rect width="800" height="450" fill="floralwhite" />

<g id="infrastructure">
<g id="network">
<!-- netlines 1 -->
  <path d="M 60 340
           l 60 0
           l 50 -30
           l 10 -50
           l 80 0
           l 140 -20
           l 0 -50"
           stroke="black" fill="none" stroke-width="3"/>
  <circle r="8" cx="120" cy="340" />
  <circle r="8" cx="170" cy="310" />
  <circle r="8" cx="180" cy="260" />
  <circle r="8" cx="260" cy="260" />
  <circle r="8" cx="400" cy="240" />
</g>

<g id="goofbox-building">
  <rect width="240" height="150" x="280" y="40" stroke="black" fill="none" stroke-width="3" />
  <rect width="60" height="40" x="370" y="150" stroke="black" fill="none" stroke-width="3" />
  <path d="M 400 150 l 0 40" stroke="black" stroke-width="2" />
  <text id="goofbox-sign" x="315" y="100">goofbox</text>
</g>
</g>

<g id="camera" transform="scale(0.2, 0.2) translate(-100, 1500)">
    <rect width="180" height="350" x="310" y="40" stroke="black" stroke-width="4" fill="white" rx="10" />
    <rect width="180" height="50" x="310" y="340" stroke="none" fill="black" rx="10" />
    <rect width="180" height="10" x="310" y="340" stroke="none" fill="black"  />
    <circle id="photo-button" r="15" cx="400" cy="310" fill="none" stroke="black" stroke-width="3" />
    <rect width="180" height="30" x="310" y="40" stroke="none" fill="black" rx="10" />
    <rect width="180" height="20" x="310" y="50" stroke="none" fill="black" />

<g id="baby-file">
<path d="M 340 90
         l 100 0
         l 20 20
         l 0 160
         l -120 0
         l 0 -180
         l 100 0
         l 0 20
         l 20 0"
         stroke="black" fill="none" stroke-width="3" stroke-linejoin="round"/>

<!-- torso -->
<path id="swaddle" d="M 425 152
                     l 0 70
                     a 25 25 0 1 1 -50 0
                     l 0 -70"
                     stroke="black" fill="white" stroke-width="3" />
<path id="fold_one" d="M 425 176
                       a 180 180 90 0 0 -50 40"
                           stroke="black" fill="none" stroke-width="3"/>
<path id="fold_two" d="M 375 176
                       a 500 500 90 0 1 30 12"
                           stroke="black" fill="none" stroke-width="3"/>

<!-- head -->
<circle id="head" r="30" cx="400" cy="140" fill="white" stroke-width="3" stroke="black" />
<path id="swirl" d="M 400 110
                    a 6 6 90 1 1 -6 6"
                    stroke="black" fill="none" stroke-width="3"/>
<rect id="right-eye" width="8" height="3" x="382" y="144" rx="1" />
<rect id="left-eye" width="8" height="3" x="408" y="144" rx="1" />
<circle id="mouth" r="3" cx="400" cy="160"/>  
</g>
</g>

</svg>