<svg
  xmlns="http://www.w3.org/2000/svg"
  viewBox="0 0 800 450"
  xmlns:xlink="http://www.w3.org/1999/xlink">
>

<style>

:root {
  --src-phone: black;   
  --dest-phone: darkslategray;
  --animation-length: 10s;
}

#laptop {
  fill: var(--src-phone);
  stroke: var(--src-phone);
}

#website-title-sister{
  font-family: Arial, Helvetica, sans-serif;
  font-size: 10px;
  letter-spacing: 2px;
}

#website-title-mom{
  font-family: Arial, Helvetica, sans-serif;
  font-size: 24px;
  letter-spacing: 2px;
}

#mom-screen-on {
  animation-name: mom-screen-animation;
  animation-duration: var(--animation-length);
  animation-iteration-count: infinite;
  animation-direction: forwards;
  animation-timing-function: linear;
}
@keyframes mom-screen-animation {
    0% {
        opacity: 0;
    }
    10% {
        opacity: 0;
    }
    15% {
        opacity: 1;
    }
    100% {
        opacity: 1;
    }
}

#hyper-text {
  animation-name: hyper-animation;
  animation-duration: var(--animation-length);
  animation-iteration-count: infinite;
  animation-direction: forwards;
  animation-timing-function: linear;
}
@keyframes hyper-animation {
    0% {
        opacity: 0;
    }
    20% {
        opacity: 0;
    }
    25% {
        opacity: 1;
    }
    100% {
        opacity: 1;
    }
}

#website-mom {
  animation-name: website-animation;
  animation-duration: var(--animation-length);
  animation-iteration-count: infinite;
  animation-direction: forwards;
  animation-timing-function: linear;
}
@keyframes website-animation {
    0% {
        opacity: 0;
    }
    60% {
        opacity: 0;
    }
    62% {
        opacity: 1;
    }
    100% {
        opacity: 1;
    }
}

.p2p-link {
  animation-name: p2p-link-animation;
  animation-duration: var(--animation-length);
  animation-iteration-count: infinite;
  animation-direction: forwards;
  animation-timing-function: linear;
}
@keyframes p2p-link-animation {
  0% {
    stroke: black;
  }
  40% {
    stroke: black;
  }
  42% {
    stroke: goldenrod;
    stroke-width: 10px;
  }
  44% {
    stroke: black;
    stroke-width: 5px;
  }
  46% {
    stroke: greenyellow;
    stroke-width: 10px;
  }
  48% {
    stroke: black;
    stroke-width: 5px;
  }
  100% {
    stroke: black;
  }
}

</style>

<rect width="800" height="450" fill="floralwhite" />

<symbol id="baby-asleep-icon">
  <rect width="120" height="180" x="340" y="90" stroke="black" fill="white" stroke-width="3" stroke-linejoin="round" />
  <path id="swaddle" d="M 425 152
                     l 0 70
                     a 25 25 0 1 1 -50 0
                     l 0 -70"
                     stroke="black" fill="white" stroke-width="3" />
  <path id="fold_one" d="M 425 176
                       a 180 180 90 0 0 -50 40"
                           stroke="black" fill="none" stroke-width="3"/>
  <path id="fold_two" d="M 375 176
                       a 500 500 90 0 1 30 12"
                           stroke="black" fill="none" stroke-width="3"/>

  <!-- head -->
  <circle id="head" r="30" cx="400" cy="140" fill="white" stroke-width="3" stroke="black" />
  <path id="swirl" d="M 400 110
                    a 6 6 90 1 1 -6 6"
                    stroke="black" fill="none" stroke-width="3"/>
  <rect id="right-eye" width="8" height="3" x="384" y="144" rx="1" />
  <rect id="left-eye" width="8" height="3" x="406" y="144" rx="1" />
  <circle id="mouth" r="3" cx="400" cy="160"/>  
</symbol>

<symbol id="baby-awake-icon">
  <rect width="120" height="180" x="340" y="90" stroke="black" fill="white" stroke-width="3" stroke-linejoin="round" />
  <path id="swaddle" d="M 425 152
                     l 0 70
                     a 25 25 0 1 1 -50 0
                     l 0 -70"
                     stroke="black" fill="white" stroke-width="3" />
  <path id="fold_one" d="M 425 176
                       a 180 180 90 0 0 -50 40"
                           stroke="black" fill="none" stroke-width="3"/>
  <path id="fold_two" d="M 375 176
                       a 500 500 90 0 1 30 12"
                           stroke="black" fill="none" stroke-width="3"/>

  <!-- head -->
  <circle id="head" r="30" cx="400" cy="140" fill="white" stroke-width="3" stroke="black" />
  <path id="swirl" d="M 400 110
                    a 6 6 90 1 1 -6 6"
                    stroke="black" fill="none" stroke-width="3"/>
  <circle id="right-eye" r="3" cx="389" cy="144" fill="black" stroke="black"/>
  <circle id="left-eye" r="3" cx="409" cy="144" fill="black" stroke="black" />
  <!-- <circle id="mouth" r="3" cx="400" cy="160"/>   -->
  <line x1="390" x2="408" y1="158" y2="158" stroke="black" stroke-width="3"/>
</symbol>

<g id="p2p-infra">
  <line class="p2p-link" x1="530" x2="530" y1="150" y2="250" stroke="black" stroke-width="5" />
</g>

<g id="my-laptop">
  <path d="M 80 130
           l 160 0
           l 0 100
           l 30 25
           l 0 5
           l -220 0
           l 0 -5
           l 30 -25
           l 0 -100"
           stroke="black" fill="gainsboro" stroke-width="3" stroke-linejoin="round"
           stroke-linecap="round" />
  <path d="M 85 235
           l 150 0
           l 14 14
           l -178 0"
           stroke="none" fill="gray" />
  <line x1="80" x2="240" y1="230" y2="230" stroke="black" stroke-width="2"/>
  <line x1="50" x2="270" y1="256" y2="256" stroke="black" stroke-width="2"/>
  <rect width="140" height="76" x="90" y="140" stroke="black" fill="gray" />
</g>

<g id="sister-laptop">
  <path d="M 460 50
           l 140 0
           l 0 90
           l 25 20
           l 0 3
           l -190 0
           l 0 -3
           l 25 -20
           l 0 -90"
           stroke="black" fill="darkslategray" stroke-width="3" stroke-linejoin="round"
           stroke-linecap="round" />
  <path d="M 465 145
           l 130 0
           l 10 10
           l -150 0"
           stroke="none" fill="gray" />
  <line x1="435" x2="625" y1="160" y2="160" stroke="black" stroke-width="2"/>
  <line x1="460" x2="602" y1="140" y2="140" stroke="black" stroke-width="2"/>
  <rect width="120" height="65" x="470" y="60" stroke="black" fill="white" />

  <g id="website-sister">
    <rect width="120" height="65" x="470" y="60" stroke="black" fill="aliceblue" />
    <text id="website-title-sister" x="480" y="85">
      My Photo Album
    </text>

    <g id="baby-icon-1">
      <use xlink:href="#baby-asleep-icon" transform="scale(0.15) translate(3000, 520)"/>
    </g>
    <g id="baby-icon-2">
        <use xlink:href="#baby-awake-icon" transform="scale(0.15) translate(3250,520)"/>
    </g>
  </g>

  <g id="address-bar">
    <rect width="74" height="10" x="472" y="62" rx="2" fill="white" stroke="black" stroke-width="0.5" />
    <text x="474" y="69" style="font-size:6px; font-family: sans-serif;">hyper://photos</text>
    <line x1="470" x2="590" y1="74" y2="74" stroke="black" stroke-width="1" />

  </g>

  <rect id="host-status" width="18" height="10" x="570" y="62" rx="5" fill="lightgreen"/>
  <circle id="host-button" r="4" cx="583" cy="67" fill="gray" stroke="none"/>
  <text x="549" y="70" style="font-size:8px; font-family: sans-serif;">Host</text>

</g>

<g id="mom-desktop">
  <rect width="240" height="140" x="410" y="230" stroke="black" fill="gray"
  stroke-width="5" stroke-linejoin="round"/>
  <rect width="40" height="30" x="510" y="370" />
  <rect width="140" height="10" x="460" y="400" />

  <rect id="mom-screen-on" width="240" height="140" x="410" y="230" stroke="none" fill="white" />

  <text id="hyper-text" x="450" y="310"
    style="font-family: sans-serif; font-size: 42px; letter-spacing: 2px;">
    hyper://
  </text>

  <g id="website-mom">
    <rect width="240" height="140" x="410" y="230" stroke="black" fill="aliceblue" />
    <text id="website-title-mom" x="430" y="260">
      My Photo Album
    </text>

    <g id="baby-icon-1">
      <use xlink:href="#baby-asleep-icon" transform="scale(0.4) translate(800, 610)"/>
    </g>
    <g id="baby-icon-2">
        <use xlink:href="#baby-awake-icon" transform="scale(0.4) translate(1030, 610)"/>
    </g>
  </g>
</g>

</svg>